<svg width="26" height="26" viewBox="0 0 26 26" fill="none" xmlns="http://www.w3.org/2000/svg">
<path d="M23.5625 10.3594C23.7241 10.3594 23.8791 10.2952 23.9934 10.1809C24.1077 10.0666 24.1719 9.91162 24.1719 9.75V6.5C24.1719 6.1229 24.0221 5.76124 23.7554 5.49458C23.4888 5.22793 23.1271 5.07812 22.75 5.07812H3.25C2.8729 5.07812 2.51124 5.22793 2.24458 5.49458C1.97793 5.76124 1.82813 6.1229 1.82812 6.5V9.75C1.82812 9.91162 1.89233 10.0666 2.00661 10.1809C2.12089 10.2952 2.27588 10.3594 2.4375 10.3594C3.13784 10.3594 3.80949 10.6376 4.3047 11.1328C4.79992 11.628 5.07812 12.2997 5.07812 13C5.07812 13.7003 4.79992 14.372 4.3047 14.8672C3.80949 15.3624 3.13784 15.6406 2.4375 15.6406C2.27588 15.6406 2.12089 15.7048 2.00661 15.8191C1.89233 15.9334 1.82812 16.0884 1.82812 16.25V19.5C1.82812 19.8771 1.97793 20.2388 2.24458 20.5054C2.51124 20.7721 2.8729 20.9219 3.25 20.9219H22.75C23.1271 20.9219 23.4888 20.7721 23.7554 20.5054C24.0221 20.2388 24.1719 19.8771 24.1719 19.5V16.25C24.1719 16.0884 24.1077 15.9334 23.9934 15.8191C23.8791 15.7048 23.7241 15.6406 23.5625 15.6406C22.8622 15.6406 22.1905 15.3624 21.6953 14.8672C21.2001 14.372 20.9219 13.7003 20.9219 13C20.9219 12.2997 21.2001 11.628 21.6953 11.1328C22.1905 10.6376 22.8622 10.3594 23.5625 10.3594ZM3.04688 19.5V16.8116C3.9542 16.6676 4.78039 16.2046 5.3769 15.5059C5.97341 14.8072 6.30113 13.9187 6.30113 13C6.30113 12.0813 5.97341 11.1928 5.3769 10.4941C4.78039 9.79538 3.9542 9.3324 3.04688 9.18836V6.5C3.04688 6.44613 3.06828 6.39446 3.10637 6.35637C3.14446 6.31828 3.19613 6.29688 3.25 6.29688H9.14062V19.7031H3.25C3.19613 19.7031 3.14446 19.6817 3.10637 19.6436C3.06828 19.6055 3.04688 19.5539 3.04688 19.5ZM22.9531 16.8116V19.5C22.9531 19.5539 22.9317 19.6055 22.8936 19.6436C22.8555 19.6817 22.8039 19.7031 22.75 19.7031H10.3594V6.29688H22.75C22.8039 6.29688 22.8555 6.31828 22.8936 6.35637C22.9317 6.39446 22.9531 6.44613 22.9531 6.5V9.18836C22.0458 9.3324 21.2196 9.79538 20.6231 10.4941C20.0266 11.1928 19.6989 12.0813 19.6989 13C19.6989 13.9187 20.0266 14.8072 20.6231 15.5059C21.2196 16.2046 22.0458 16.6676 22.9531 16.8116Z" fill="#707070"/>
</svg>
