<svg xmlns="http://www.w3.org/2000/svg" width="19" height="21" viewBox="0 0 19 21" fill="none">
  <path
    d="M9.03129 1.88855L5.01106 10.463L1.22161 14.2525C0.592797 14.8813 0.592797 15.9008 1.22161 16.5296L2.3602 17.6682C2.98901 18.297 4.00853 18.297 4.63734 17.6682L8.4268 13.8788L17.0013 9.85853M18.1398 10.997L7.89274 0.75M16.501 4.80404L18.1398 3.97034M14.0858 2.38879L14.9195 0.75"
    stroke="#707070"
    stroke-width="1"
    stroke-miterlimit="10"
    stroke-linecap="round"
    stroke-linejoin="round"
  />
  <path
    d="M6.15055 16.1574L9.25649 19.2634C9.5491 19.5646 9.95848 19.7518 10.4117 19.7518C11.301 19.7518 12.0218 19.0309 12.0218 18.1416C12.0218 17.6885 11.8346 17.2791 11.5334 16.9865L5.01172 10.4648"
    stroke="#707070"
    stroke-width="1"
    stroke-miterlimit="10"
    stroke-linecap="round"
    stroke-linejoin="round"
  />
</svg>
