<svg xmlns="http://www.w3.org/2000/svg" width="21" height="21" viewBox="0 0 21 21" fill="none">
  <path d="M20.2355 0.386778C20.0715 0.220286 19.8656 0.101202 19.6395 0.0421224C19.4134 -0.0169574 19.1756 -0.013837 18.9511 0.0511532H18.9408L0.947379 5.51021C0.691825 5.58423 0.464798 5.73416 0.296392 5.94014C0.127987 6.14611 0.0261555 6.3984 0.00439728 6.66357C-0.017361 6.92874 0.0419811 7.19425 0.174557 7.42492C0.307134 7.6556 0.506683 7.84053 0.746754 7.95521L8.768 11.859L12.6643 19.8755C12.7692 20.1003 12.9363 20.2903 13.1458 20.4232C13.3553 20.5561 13.5984 20.6263 13.8464 20.6255C13.8839 20.6255 13.9224 20.6255 13.9599 20.6208C14.2256 20.5999 14.4786 20.498 14.6846 20.3289C14.8906 20.1598 15.0398 19.9315 15.1121 19.6749L20.5683 1.68147V1.67115C20.6337 1.44694 20.6372 1.20924 20.5786 0.98317C20.5201 0.757097 20.4015 0.551044 20.2355 0.386778ZM19.4855 1.36178L14.0339 19.3533V19.3637C14.0235 19.4009 14.0018 19.4341 13.9718 19.4586C13.9418 19.483 13.9049 19.4976 13.8663 19.5002C13.8277 19.5029 13.7892 19.4936 13.7561 19.4735C13.723 19.4534 13.6969 19.4235 13.6814 19.388L9.86769 11.5524L14.4614 6.95865C14.5137 6.90639 14.5552 6.84435 14.5834 6.77606C14.6117 6.70778 14.6263 6.63459 14.6263 6.56068C14.6263 6.48677 14.6117 6.41359 14.5834 6.3453C14.5552 6.27702 14.5137 6.21498 14.4614 6.16272C14.4092 6.11045 14.3471 6.069 14.2789 6.04071C14.2106 6.01243 14.1374 5.99787 14.0635 5.99787C13.9896 5.99787 13.9164 6.01243 13.8481 6.04071C13.7798 6.069 13.7178 6.11045 13.6655 6.16272L9.07175 10.7565L1.22957 6.93803C1.19481 6.92183 1.16586 6.89537 1.14661 6.86222C1.12736 6.82906 1.11874 6.7908 1.12191 6.75259C1.12507 6.71438 1.13988 6.67806 1.16432 6.64852C1.18877 6.61899 1.22168 6.59765 1.25863 6.5874H1.26894L19.2605 1.13303C19.2921 1.12415 19.3255 1.12399 19.3572 1.13258C19.3889 1.14116 19.4177 1.15816 19.4405 1.18178C19.4636 1.20492 19.4803 1.23371 19.4888 1.26529C19.4974 1.29686 19.4975 1.33013 19.4893 1.36178H19.4855Z" fill="#707070"/>
</svg>